<svg width="265" height="268" viewBox="0 0 265 268" fill="none" xmlns="http://www.w3.org/2000/svg">
<path fill-rule="evenodd" clip-rule="evenodd" d="M131.986 0C139.137 0 146.156 0.562988 153.002 1.64551L158.861 31.6509C162.271 32.5483 165.611 33.6133 168.875 34.835L191.326 13.8887C204.309 20.3457 216.09 28.856 226.246 38.9941L213.361 66.6914C215.668 69.5024 217.836 72.436 219.848 75.48L250.322 71.7305C252.508 75.9126 254.477 80.2241 256.217 84.6519L255.875 84.9517L256.33 84.9453C258.037 89.3198 259.521 93.8066 260.764 98.3916L260.52 98.564L260.818 98.5918C262.035 103.106 263.021 107.716 263.766 112.406L237.043 127.249C237.16 129.292 237.223 131.351 237.223 133.424C237.223 135.147 237.18 136.861 237.1 138.564L263.922 153.423C263.223 158.079 262.281 162.657 261.113 167.143L260.338 167.216L260.977 167.666C259.775 172.199 258.342 176.637 256.689 180.967L256.096 180.958L256.543 181.353C254.863 185.716 252.959 189.968 250.848 194.097L220.48 190.395C218.395 193.631 216.135 196.745 213.715 199.723L226.65 227.448C223.375 230.748 219.926 233.877 216.32 236.821L215.6 236.394L215.869 237.188C212.26 240.111 208.49 242.85 204.582 245.389L204.086 245.017L204.221 245.623C200.322 248.138 196.283 250.456 192.119 252.562L169.705 231.698C166.152 233.062 162.506 234.24 158.781 235.218L152.959 265.209C148.379 265.932 143.725 266.422 139.002 266.667L138.74 266.063L138.545 266.69C136.373 266.795 134.186 266.849 131.986 266.849C129.465 266.849 126.959 266.778 124.473 266.64L124.357 266.268L124.201 266.625C119.459 266.353 114.783 265.832 110.188 265.077L104.311 234.983C100.697 234.001 97.1602 232.831 93.7109 231.483L71.3789 252.32C67.1348 250.152 63.0215 247.764 59.0547 245.17L59.1172 244.887L58.8867 245.06C50.8789 239.806 43.4688 233.714 36.7871 226.909L49.7344 199.076C47.5098 196.292 45.4238 193.393 43.4844 190.388L13.1348 194.122C6.66602 181.48 2.15234 167.67 0 153.091L26.8535 138.175C26.7832 136.6 26.748 135.017 26.748 133.424C26.748 131.562 26.7969 129.711 26.8926 127.873L0.107422 113.035C2.34766 98.4336 6.95117 84.6108 13.5215 71.9727L43.9883 75.6855C45.8398 72.8652 47.8301 70.1401 49.9375 67.5176L36.9785 39.7441C47.1074 29.4717 58.8926 20.8345 71.8984 14.2632L94.3164 35.1309C97.4746 33.9194 100.707 32.856 104.004 31.9492L109.85 1.82764C117.049 0.625488 124.443 0 131.986 0ZM197.504 75.9541C194.754 78.7056 190.291 78.7056 187.539 75.9541C184.787 73.2021 184.787 68.7397 187.539 65.9878C190.291 63.2358 194.754 63.2358 197.504 65.9878C200.256 68.7397 200.256 73.2021 197.504 75.9541ZM74.5117 68.8462C77.2637 71.5981 77.2637 76.0596 74.5117 78.812C71.7598 81.564 67.2969 81.564 64.5469 78.812C61.7949 76.0596 61.7949 71.5981 64.5469 68.8462C67.2969 66.0938 71.7598 66.0938 74.5117 68.8462ZM132.453 200.606C169.299 200.606 199.166 170.738 199.166 133.894C199.166 97.0503 169.299 67.1821 132.453 67.1821C95.6113 67.1821 65.7422 97.0503 65.7422 133.894C65.7422 170.738 95.6113 200.606 132.453 200.606ZM194.645 198.944C197.396 196.192 197.396 191.73 194.645 188.979C191.893 186.227 187.43 186.227 184.678 188.979C181.926 191.73 181.926 196.192 184.678 198.944C187.43 201.696 191.893 201.696 194.645 198.944ZM77.3711 196.087C74.6191 198.838 70.1562 198.838 67.4043 196.087C64.6523 193.335 64.6523 188.873 67.4043 186.121C70.1562 183.369 74.6191 183.369 77.3711 186.121C80.1211 188.873 80.1211 193.335 77.3711 196.087Z" transform="translate(0.851562 0.842285)" fill="black"/>
<path d="M0 40.9253V22.4088L32.0143 0L64.0301 22.4088V40.0917H52.1915L32.025 25.8016L23.6434 31.6669L64.0301 59.9349V78.4514L32.0143 100.86L0 78.4514V60.7632H11.6059L32.0143 75.0518L40.3866 69.1934L0 40.9253Z" transform="translate(99.8633 82.8779)" fill="black"/>
</svg>
